<mxfile host="app.diagrams.net" modified="2023-05-13T15:00:45.213Z" agent="Mozilla/5.0 (Windows NT 10.0; Win64; x64) AppleWebKit/537.36 (KHTML, like Gecko) Chrome/113.0.0.0 Safari/537.36" version="21.3.0" etag="ghPbZm3n8hQeubgoL-Yt" type="github">
  <diagram name="第 1 页" id="vFvKEq6A9GAbGZheE8tC">
    <mxGraphModel>
      <root>
        <mxCell id="0" />
        <mxCell id="1" parent="0" />
      </root>
    </mxGraphModel>
  </diagram>
</mxfile>
